<svg width="2746" height="1348" xmlns="http://www.w3.org/2000/svg" xmlns:xlink="http://www.w3.org/1999/xlink" xml:space="preserve" overflow="hidden"><g transform="translate(-641 -398)"><g><path d="M1654 686C1654 621.935 1710.86 570 1781 570 1851.14 570 1908 621.935 1908 686 1908 750.065 1851.14 802 1781 802 1710.86 802 1654 750.065 1654 686Z" stroke="#FFFFFF" stroke-width="10.3125" stroke-linecap="butt" stroke-linejoin="miter" stroke-miterlimit="8" stroke-opacity="1" fill="#285966" fill-rule="evenodd" fill-opacity="1"/><path d="M3125 678C3125 613.935 3181.86 562 3252 562 3322.14 562 3379 613.935 3379 678 3379 742.065 3322.14 794 3252 794 3181.86 794 3125 742.065 3125 678Z" stroke="#FFFFFF" stroke-width="10.3125" stroke-linecap="butt" stroke-linejoin="miter" stroke-miterlimit="8" stroke-opacity="1" fill="#285966" fill-rule="evenodd" fill-opacity="1"/><path d="M3125 1621.5C3125 1557.16 3181.86 1505 3252 1505 3322.14 1505 3379 1557.16 3379 1621.5 3379 1685.84 3322.14 1738 3252 1738 3181.86 1738 3125 1685.84 3125 1621.5Z" stroke="#FFFFFF" stroke-width="10.3125" stroke-linecap="butt" stroke-linejoin="miter" stroke-miterlimit="8" stroke-opacity="1" fill="#285966" fill-rule="evenodd" fill-opacity="1"/><path d="M1400 1401C1400 1336.93 1456.86 1285 1527 1285 1597.14 1285 1654 1336.93 1654 1401 1654 1465.06 1597.14 1517 1527 1517 1456.86 1517 1400 1465.06 1400 1401Z" stroke="#FFFFFF" stroke-width="10.3125" stroke-linecap="butt" stroke-linejoin="miter" stroke-miterlimit="8" stroke-opacity="1" fill="#285966" fill-rule="evenodd" fill-opacity="1"/><path d="M1542.5 1389C1542.5 1336.26 1589.06 1293.5 1646.5 1293.5 1703.94 1293.5 1750.5 1336.26 1750.5 1389 1750.5 1441.74 1703.94 1484.5 1646.5 1484.5 1589.06 1484.5 1542.5 1441.74 1542.5 1389Z" stroke="#FFFFFF" stroke-width="1.14583" stroke-linecap="butt" stroke-linejoin="miter" stroke-miterlimit="8" stroke-opacity="1" fill="#3B8698" fill-rule="evenodd" fill-opacity="0.470588"/><path d="M1809.5 655C1809.5 602.257 1856.29 559.5 1914 559.5 1971.71 559.5 2018.5 602.257 2018.5 655 2018.5 707.743 1971.71 750.5 1914 750.5 1856.29 750.5 1809.5 707.743 1809.5 655Z" stroke="#FFFFFF" stroke-width="1.14583" stroke-linecap="butt" stroke-linejoin="miter" stroke-miterlimit="8" stroke-opacity="1" fill="#3B8698" fill-rule="evenodd" fill-opacity="0.470588"/><path d="M3095.5 1509C3095.5 1456.26 3142.06 1413.5 3199.5 1413.5 3256.94 1413.5 3303.5 1456.26 3303.5 1509 3303.5 1561.74 3256.94 1604.5 3199.5 1604.5 3142.06 1604.5 3095.5 1561.74 3095.5 1509Z" stroke="#FFFFFF" stroke-width="1.14583" stroke-linecap="butt" stroke-linejoin="miter" stroke-miterlimit="8" stroke-opacity="1" fill="#3B8698" fill-rule="evenodd" fill-opacity="0.470588"/><path d="M0 0 164.17 516.716" stroke="#A6A6A6" stroke-width="6.875" stroke-linecap="butt" stroke-linejoin="miter" stroke-miterlimit="8" stroke-dasharray="6.875 6.875" stroke-opacity="1" fill="none" fill-rule="evenodd" transform="matrix(-1 0 0 1 1691.67 768.5)"/><path d="M0 0 525.164 48.0738" stroke="#A6A6A6" stroke-width="6.875" stroke-linecap="butt" stroke-linejoin="miter" stroke-miterlimit="8" stroke-dasharray="6.875 6.875" stroke-opacity="1" fill="none" fill-rule="evenodd" transform="matrix(-1 0 0 1 2433.66 638.5)"/><path d="M2306 521.5C2306 457.159 2362.86 405 2433 405 2503.14 405 2560 457.159 2560 521.5 2560 585.841 2503.14 638 2433 638 2362.86 638 2306 585.841 2306 521.5Z" stroke="#FFFFFF" stroke-width="10.3125" stroke-linecap="butt" stroke-linejoin="miter" stroke-miterlimit="8" stroke-opacity="1" fill="#285966" fill-rule="evenodd" fill-opacity="1"/><path d="M2433.5 638.5 3163.25 1539.93" stroke="#A6A6A6" stroke-width="6.875" stroke-linecap="butt" stroke-linejoin="miter" stroke-miterlimit="8" stroke-dasharray="6.875 6.875" stroke-opacity="1" fill="none" fill-rule="evenodd"/><path d="M3252.5 794.5 3254.97 1505.19" stroke="#A6A6A6" stroke-width="6.875" stroke-linecap="butt" stroke-linejoin="miter" stroke-miterlimit="8" stroke-dasharray="6.875 6.875" stroke-opacity="1" fill="none" fill-rule="evenodd"/><path d="M1870.5 768.5 3162.6 1539.66" stroke="#A6A6A6" stroke-width="6.875" stroke-linecap="butt" stroke-linejoin="miter" stroke-miterlimit="8" stroke-dasharray="6.875 6.875" stroke-opacity="1" fill="none" fill-rule="evenodd"/><path d="M2181 1138.5C2181 959.284 2339.94 814 2536 814 2732.06 814 2891 959.284 2891 1138.5 2891 1317.72 2732.06 1463 2536 1463 2339.94 1463 2181 1317.72 2181 1138.5Z" stroke="#FFFFFF" stroke-width="10.3125" stroke-linecap="butt" stroke-linejoin="miter" stroke-miterlimit="8" stroke-opacity="1" fill="#285966" fill-rule="evenodd" fill-opacity="1"/><path d="M2136.5 1242.5C2136.5 1100.56 2267.46 985.5 2429 985.5 2590.54 985.5 2721.5 1100.56 2721.5 1242.5 2721.5 1384.44 2590.54 1499.5 2429 1499.5 2267.46 1499.5 2136.5 1384.44 2136.5 1242.5Z" stroke="#FFFFFF" stroke-width="1.14583" stroke-linecap="butt" stroke-linejoin="miter" stroke-miterlimit="8" stroke-opacity="1" fill="#3B8698" fill-rule="evenodd" fill-opacity="0.470588"/><path d="M2260.5 613C2260.5 560.257 2307.06 517.5 2364.5 517.5 2421.94 517.5 2468.5 560.257 2468.5 613 2468.5 665.743 2421.94 708.5 2364.5 708.5 2307.06 708.5 2260.5 665.743 2260.5 613Z" stroke="#FFFFFF" stroke-width="1.14583" stroke-linecap="butt" stroke-linejoin="miter" stroke-miterlimit="8" stroke-opacity="1" fill="#3B8698" fill-rule="evenodd" fill-opacity="0.470588"/><path d="M3046.5 589C3046.5 536.257 3093.29 493.5 3151 493.5 3208.71 493.5 3255.5 536.257 3255.5 589 3255.5 641.743 3208.71 684.5 3151 684.5 3093.29 684.5 3046.5 641.743 3046.5 589Z" stroke="#FFFFFF" stroke-width="1.14583" stroke-linecap="butt" stroke-linejoin="miter" stroke-miterlimit="8" stroke-opacity="1" fill="#3B8698" fill-rule="evenodd" fill-opacity="0.470588"/><path d="M2287.5 1135C2287.5 1082.26 2334.06 1039.5 2391.5 1039.5 2448.94 1039.5 2495.5 1082.26 2495.5 1135 2495.5 1187.74 2448.94 1230.5 2391.5 1230.5 2334.06 1230.5 2287.5 1187.74 2287.5 1135Z" stroke="#FFFFFF" stroke-width="1.14583" stroke-linecap="butt" stroke-linejoin="miter" stroke-miterlimit="8" stroke-opacity="1" fill="#9E646D" fill-rule="evenodd" fill-opacity="0.470588"/><path d="M1295.5 1256C1295.5 1203.26 1342.06 1160.5 1399.5 1160.5 1456.94 1160.5 1503.5 1203.26 1503.5 1256 1503.5 1308.74 1456.94 1351.5 1399.5 1351.5 1342.06 1351.5 1295.5 1308.74 1295.5 1256Z" stroke="#FFFFFF" stroke-width="1.14583" stroke-linecap="butt" stroke-linejoin="miter" stroke-miterlimit="8" stroke-opacity="1" fill="#9E646D" fill-rule="evenodd" fill-opacity="0.470588"/><path d="M2983.5 717C2983.5 664.257 3030.29 621.5 3088 621.5 3145.71 621.5 3192.5 664.257 3192.5 717 3192.5 769.743 3145.71 812.5 3088 812.5 3030.29 812.5 2983.5 769.743 2983.5 717Z" stroke="#FFFFFF" stroke-width="1.14583" stroke-linecap="butt" stroke-linejoin="miter" stroke-miterlimit="8" stroke-opacity="1" fill="#9E646D" fill-rule="evenodd" fill-opacity="0.470588"/><path d="M2520.5 975C2520.5 922.257 2567.29 879.5 2625 879.5 2682.71 879.5 2729.5 922.257 2729.5 975 2729.5 1027.74 2682.71 1070.5 2625 1070.5 2567.29 1070.5 2520.5 1027.74 2520.5 975Z" stroke="#FFFFFF" stroke-width="1.14583" stroke-linecap="butt" stroke-linejoin="miter" stroke-miterlimit="8" stroke-opacity="1" fill="#BDC500" fill-rule="evenodd" fill-opacity="0.470588"/><path d="M2854.5 665C2854.5 612.257 2901.29 569.5 2959 569.5 3016.71 569.5 3063.5 612.257 3063.5 665 3063.5 717.743 3016.71 760.5 2959 760.5 2901.29 760.5 2854.5 717.743 2854.5 665Z" stroke="#FFFFFF" stroke-width="1.14583" stroke-linecap="butt" stroke-linejoin="miter" stroke-miterlimit="8" stroke-opacity="1" fill="#3B8698" fill-rule="evenodd" fill-opacity="0.470588"/><path d="M2699.5 589C2699.5 536.257 2746.06 493.5 2803.5 493.5 2860.94 493.5 2907.5 536.257 2907.5 589 2907.5 641.743 2860.94 684.5 2803.5 684.5 2746.06 684.5 2699.5 641.743 2699.5 589Z" stroke="#FFFFFF" stroke-width="1.14583" stroke-linecap="butt" stroke-linejoin="miter" stroke-miterlimit="8" stroke-opacity="1" fill="#BDC500" fill-rule="evenodd" fill-opacity="0.470588"/><path d="M1936.5 750C1936.5 697.257 1983.29 654.5 2041 654.5 2098.71 654.5 2145.5 697.257 2145.5 750 2145.5 802.743 2098.71 845.5 2041 845.5 1983.29 845.5 1936.5 802.743 1936.5 750Z" stroke="#FFFFFF" stroke-width="1.14583" stroke-linecap="butt" stroke-linejoin="miter" stroke-miterlimit="8" stroke-opacity="1" fill="#9E646D" fill-rule="evenodd" fill-opacity="0.470588"/><path d="M2742.5 1432C2742.5 1379.26 2789.06 1336.5 2846.5 1336.5 2903.94 1336.5 2950.5 1379.26 2950.5 1432 2950.5 1484.74 2903.94 1527.5 2846.5 1527.5 2789.06 1527.5 2742.5 1484.74 2742.5 1432Z" stroke="#FFFFFF" stroke-width="1.14583" stroke-linecap="butt" stroke-linejoin="miter" stroke-miterlimit="8" stroke-opacity="1" fill="#9E646D" fill-rule="evenodd" fill-opacity="0.470588"/><path d="M2560.5 521.5 3133.29 673.662" stroke="#A6A6A6" stroke-width="6.875" stroke-linecap="butt" stroke-linejoin="miter" stroke-miterlimit="8" stroke-dasharray="6.875 6.875" stroke-opacity="1" fill="none" fill-rule="evenodd"/><path d="M0 0 910.607 646.986" stroke="#A6A6A6" stroke-width="6.875" stroke-linecap="butt" stroke-linejoin="miter" stroke-miterlimit="8" stroke-dasharray="6.875 6.875" stroke-opacity="1" fill="none" fill-rule="evenodd" transform="matrix(-1 0 0 1 2438.11 638.5)"/><path d="M712.386 762.813 712.282 762.504 712.181 762.813ZM712.631 763.111 712.485 763.111 712.419 762.925 712.148 762.925 712.085 763.111 711.945 763.111 712.206 762.384 712.358 762.384ZM713.093 763.075C713.093 763.16 713.073 763.223 713.031 763.263 712.99 763.304 712.927 763.324 712.843 763.324 712.804 763.324 712.771 763.32 712.742 763.312 712.713 763.304 712.69 763.293 712.671 763.278 712.652 763.264 712.638 763.246 712.629 763.226 712.619 763.206 712.614 763.184 712.614 763.159L712.745 763.159C712.747 763.185 712.756 763.204 712.771 763.217 712.787 763.229 712.811 763.236 712.846 763.236 712.869 763.236 712.889 763.232 712.904 763.224 712.918 763.217 712.93 763.206 712.938 763.193 712.946 763.179 712.952 763.163 712.955 763.143 712.958 763.124 712.96 763.102 712.96 763.078L712.96 763.044C712.916 763.094 712.865 763.119 712.807 763.119 712.773 763.119 712.742 763.113 712.716 763.101 712.69 763.089 712.668 763.071 712.65 763.049 712.632 763.026 712.618 762.998 712.609 762.965 712.6 762.932 712.595 762.894 712.595 762.852 712.595 762.812 712.6 762.776 712.609 762.742 712.619 762.708 712.633 762.678 712.652 762.653 712.67 762.628 712.693 762.609 712.721 762.594 712.748 762.58 712.78 762.573 712.816 762.573 712.845 762.573 712.872 762.577 712.895 762.585 712.919 762.594 712.941 762.607 712.961 762.625L712.961 762.585 713.093 762.585ZM712.958 762.721C712.925 762.689 712.888 762.673 712.846 762.673 712.811 762.673 712.784 762.687 712.764 762.716 712.744 762.745 712.734 762.79 712.734 762.852 712.734 762.906 712.743 762.948 712.761 762.976 712.778 763.004 712.805 763.018 712.839 763.018 712.861 763.018 712.882 763.012 712.901 762.999 712.921 762.986 712.94 762.967 712.958 762.942ZM713.398 763.123C713.355 763.123 713.317 763.117 713.283 763.104 713.25 763.091 713.222 763.073 713.199 763.049 713.176 763.026 713.158 762.997 713.146 762.963 713.134 762.929 713.128 762.891 713.128 762.848 713.128 762.805 713.134 762.766 713.146 762.732 713.158 762.698 713.175 762.669 713.198 762.646 713.22 762.622 713.248 762.604 713.28 762.592 713.312 762.579 713.349 762.573 713.391 762.573 713.431 762.573 713.467 762.579 713.499 762.591 713.531 762.603 713.558 762.62 713.581 762.643 713.604 762.666 713.621 762.695 713.633 762.729 713.645 762.762 713.651 762.801 713.651 762.844L713.651 762.877 713.268 762.877C713.269 762.905 713.273 762.928 713.28 762.948 713.287 762.968 713.296 762.984 713.308 762.997 713.319 763.01 713.333 763.019 713.348 763.025 713.363 763.031 713.38 763.034 713.398 763.034 713.427 763.034 713.451 763.028 713.47 763.016 713.49 763.004 713.504 762.983 713.513 762.953L713.641 762.953C713.636 762.98 713.626 763.005 713.612 763.026 713.599 763.047 713.581 763.065 713.56 763.079 713.539 763.094 713.515 763.105 713.488 763.112 713.461 763.119 713.431 763.123 713.398 763.123ZM713.513 762.794C713.508 762.748 713.495 762.714 713.473 762.691 713.452 762.669 713.425 762.657 713.391 762.657 713.358 762.657 713.33 762.669 713.309 762.691 713.288 762.714 713.274 762.748 713.269 762.794ZM713.817 762.651C713.865 762.599 713.919 762.573 713.98 762.573 714.1 762.573 714.16 762.638 714.16 762.767L714.16 763.111 714.023 763.111 714.023 762.778C714.023 762.751 714.02 762.73 714.014 762.715 714.007 762.699 713.997 762.689 713.982 762.684 713.967 762.679 713.949 762.678 713.929 762.68 713.893 762.683 713.857 762.706 713.821 762.748L713.821 763.111 713.684 763.111 713.684 762.585 713.817 762.585ZM714.463 763.112C714.451 763.114 714.439 763.116 714.426 763.118 714.414 763.119 714.4 763.12 714.385 763.12 714.359 763.12 714.337 763.117 714.319 763.112 714.302 763.107 714.287 763.1 714.276 763.091 714.265 763.081 714.256 763.07 714.25 763.057 714.245 763.043 714.241 763.028 714.238 763.011 714.235 762.994 714.234 762.975 714.234 762.954 714.233 762.933 714.233 762.912 714.233 762.888L714.233 762.685 714.166 762.685 714.166 762.585 714.233 762.585 714.233 762.454 714.369 762.454 714.369 762.585 714.455 762.585 714.455 762.685 714.369 762.685 714.369 762.938C714.369 762.955 714.37 762.969 714.372 762.979 714.375 762.99 714.378 762.998 714.382 763.004 714.386 763.01 714.392 763.014 714.398 763.016 714.404 763.018 714.411 763.019 714.419 763.019 714.433 763.019 714.447 763.018 714.463 763.017Z" fill="#FFFFFF" fill-rule="nonzero" fill-opacity="1"/><text fill="#7F7F7F" fill-opacity="1" font-family="Gautami,Gautami_MSFontService,sans-serif" font-style="normal" font-variant="normal" font-weight="700" font-stretch="normal" font-size="110" text-anchor="start" direction="ltr" writing-mode="lr-tb" unicode-bidi="normal" text-decoration="none" transform="matrix(1 0 0 1 711.946 832)">Agent</text><path d="M712.148 894.543C712.148 894.56 712.148 894.577 712.147 894.595 712.147 894.613 712.146 894.631 712.146 894.648 712.167 894.624 712.19 894.606 712.216 894.593 712.243 894.58 712.271 894.573 712.301 894.573 712.335 894.573 712.365 894.579 712.391 894.592 712.418 894.604 712.44 894.622 712.457 894.646 712.475 894.669 712.488 894.697 712.497 894.73 712.506 894.764 712.511 894.801 712.511 894.844 712.511 894.886 712.506 894.924 712.496 894.958 712.486 894.992 712.471 895.022 712.452 895.046 712.433 895.071 712.41 895.089 712.383 895.103 712.355 895.116 712.324 895.123 712.29 895.123 712.26 895.123 712.233 895.119 712.21 895.11 712.186 895.101 712.164 895.088 712.144 895.07L712.144 895.111 712.011 895.111 712.011 894.384 712.148 894.384ZM712.148 894.976C712.18 895.007 712.217 895.023 712.26 895.023 712.295 895.023 712.323 895.008 712.342 894.978 712.362 894.949 712.372 894.904 712.372 894.844 712.372 894.786 712.363 894.744 712.344 894.715 712.326 894.687 712.3 894.673 712.266 894.673 712.244 894.673 712.223 894.679 712.204 894.693 712.184 894.706 712.165 894.724 712.148 894.749ZM712.875 894.868 712.823 894.868C712.766 894.868 712.724 894.876 712.696 894.89 712.668 894.905 712.654 894.928 712.654 894.961 712.654 894.986 712.662 895.004 712.679 895.016 712.696 895.028 712.718 895.034 712.746 895.034 712.759 895.034 712.772 895.033 712.784 895.03 712.797 895.027 712.809 895.023 712.82 895.017 712.831 895.012 712.841 895.006 712.851 894.998 712.86 894.99 712.868 894.982 712.875 894.973ZM712.876 895.062C712.853 895.083 712.827 895.098 712.797 895.108 712.768 895.118 712.735 895.123 712.697 895.123 712.672 895.123 712.648 895.12 712.625 895.113 712.603 895.106 712.584 895.097 712.568 895.084 712.551 895.071 712.538 895.055 712.529 895.036 712.519 895.017 712.515 894.994 712.515 894.969 712.515 894.848 712.62 894.787 712.829 894.787L712.875 894.787C712.875 894.759 712.874 894.739 712.872 894.726 712.871 894.717 712.868 894.71 712.865 894.702 712.862 894.695 712.857 894.689 712.851 894.684 712.845 894.674 712.834 894.668 712.82 894.664 712.806 894.659 712.79 894.657 712.77 894.657 712.734 894.657 712.708 894.664 712.69 894.677 712.672 894.69 712.661 894.709 712.659 894.735L712.536 894.735C712.543 894.627 712.623 894.573 712.775 894.573 712.812 894.573 712.844 894.576 712.872 894.582 712.9 894.587 712.926 894.598 712.948 894.612 712.969 894.626 712.985 894.645 712.995 894.67 713.006 894.694 713.011 894.728 713.011 894.771L713.011 895.111 712.876 895.111ZM713.273 895.123C713.194 895.123 713.136 895.109 713.098 895.08 713.06 895.052 713.039 895.01 713.035 894.953L713.163 894.953C713.163 894.982 713.172 895.003 713.19 895.018 713.207 895.032 713.234 895.04 713.272 895.04 713.304 895.04 713.328 895.034 713.345 895.021 713.362 895.008 713.371 894.991 713.371 894.969 713.371 894.959 713.368 894.95 713.364 894.943 713.359 894.936 713.352 894.93 713.342 894.925 713.332 894.92 713.318 894.915 713.302 894.91 713.285 894.906 713.264 894.9 713.24 894.894 713.223 894.889 713.207 894.885 713.191 894.881 713.176 894.876 713.161 894.871 713.147 894.866 713.132 894.86 713.119 894.853 713.107 894.846 713.096 894.838 713.085 894.829 713.076 894.818 713.068 894.808 713.061 894.795 713.056 894.781 713.051 894.767 713.049 894.75 713.049 894.731 713.049 894.708 713.054 894.687 713.063 894.668 713.073 894.648 713.087 894.632 713.105 894.618 713.123 894.604 713.145 894.593 713.172 894.585 713.198 894.577 713.228 894.573 713.262 894.573 713.335 894.573 713.39 894.586 713.427 894.612 713.464 894.638 713.483 894.676 713.485 894.725L713.36 894.725C713.358 894.68 713.326 894.657 713.266 894.657 713.241 894.657 713.219 894.662 713.203 894.672 713.186 894.682 713.178 894.697 713.178 894.716 713.178 894.726 713.179 894.734 713.182 894.74 713.185 894.746 713.191 894.752 713.199 894.757 713.208 894.762 713.221 894.767 713.237 894.771 713.253 894.776 713.275 894.781 713.302 894.788 713.335 894.796 713.364 894.805 713.389 894.813 713.413 894.822 713.434 894.832 713.451 894.844 713.467 894.856 713.479 894.871 713.487 894.889 713.495 894.906 713.499 894.928 713.499 894.954 713.499 894.979 713.495 895.002 713.486 895.022 713.477 895.042 713.463 895.06 713.444 895.075 713.425 895.09 713.401 895.102 713.373 895.11 713.344 895.119 713.311 895.123 713.273 895.123ZM713.771 895.123C713.728 895.123 713.689 895.117 713.656 895.104 713.622 895.091 713.594 895.073 713.571 895.049 713.548 895.026 713.531 894.997 713.518 894.963 713.506 894.929 713.5 894.891 713.5 894.848 713.5 894.805 713.506 894.766 713.518 894.732 713.53 894.698 713.547 894.669 713.57 894.646 713.593 894.622 713.62 894.604 713.652 894.592 713.685 894.579 713.722 894.573 713.763 894.573 713.803 894.573 713.839 894.579 713.871 894.591 713.903 894.603 713.93 894.62 713.953 894.643 713.976 894.666 713.993 894.695 714.006 894.729 714.018 894.762 714.024 894.801 714.024 894.844L714.024 894.877 713.64 894.877C713.641 894.905 713.645 894.928 713.652 894.948 713.659 894.968 713.669 894.984 713.68 894.997 713.692 895.01 713.705 895.019 713.72 895.025 713.736 895.031 713.753 895.034 713.771 895.034 713.799 895.034 713.823 895.028 713.843 895.016 713.863 895.004 713.877 894.983 713.886 894.953L714.013 894.953C714.008 894.98 713.999 895.005 713.985 895.026 713.971 895.047 713.954 895.065 713.933 895.079 713.912 895.094 713.888 895.105 713.86 895.112 713.833 895.119 713.803 895.123 713.771 895.123ZM713.886 894.794C713.88 894.748 713.867 894.714 713.846 894.691 713.824 894.669 713.797 894.657 713.763 894.657 713.73 894.657 713.703 894.669 713.681 894.691 713.66 894.714 713.647 894.748 713.641 894.794ZM714.39 894.721C714.358 894.689 714.32 894.673 714.278 894.673 714.243 894.673 714.215 894.688 714.196 894.717 714.176 894.747 714.166 894.792 714.166 894.852 714.166 894.909 714.175 894.952 714.193 894.98 714.211 895.008 714.237 895.023 714.272 895.023 714.293 895.023 714.314 895.016 714.334 895.003 714.354 894.99 714.372 894.971 714.39 894.946ZM714.394 895.047C714.373 895.071 714.349 895.09 714.323 895.103 714.297 895.116 714.269 895.123 714.239 895.123 714.204 895.123 714.174 895.117 714.148 895.104 714.122 895.092 714.099 895.074 714.081 895.05 714.064 895.027 714.05 894.998 714.041 894.965 714.032 894.931 714.027 894.894 714.027 894.852 714.027 894.81 714.032 894.772 714.043 894.738 714.053 894.704 714.068 894.675 714.087 894.65 714.106 894.626 714.129 894.607 714.156 894.593 714.183 894.58 714.214 894.573 714.249 894.573 714.278 894.573 714.305 894.577 714.327 894.585 714.35 894.594 714.372 894.607 714.392 894.625 714.391 894.606 714.39 894.588 714.39 894.572 714.39 894.556 714.39 894.54 714.39 894.525L714.39 894.384 714.526 894.384 714.526 895.111 714.394 895.111Z" fill="#FFFFFF" fill-rule="nonzero" fill-opacity="1"/><text fill="#7F7F7F" fill-opacity="1" font-family="Gautami,Gautami_MSFontService,sans-serif" font-style="normal" font-variant="normal" font-weight="700" font-stretch="normal" font-size="110" text-anchor="start" direction="ltr" writing-mode="lr-tb" unicode-bidi="normal" text-decoration="none" transform="matrix(1 0 0 1 711.946 964)">based </text><path d="M712.784 1027.11 712.648 1027.11 712.648 1026.78C712.648 1026.74 712.643 1026.71 712.632 1026.7 712.622 1026.68 712.604 1026.68 712.58 1026.68 712.56 1026.68 712.541 1026.68 712.522 1026.69 712.503 1026.71 712.485 1026.72 712.466 1026.75L712.466 1027.11 712.33 1027.11 712.33 1026.78C712.33 1026.74 712.325 1026.71 712.314 1026.7 712.304 1026.68 712.286 1026.68 712.262 1026.68 712.243 1026.68 712.223 1026.68 712.204 1026.69 712.185 1026.71 712.167 1026.72 712.148 1026.75L712.148 1027.11 712.011 1027.11 712.011 1026.58 712.144 1026.58 712.144 1026.65C712.167 1026.63 712.192 1026.61 712.218 1026.59 712.244 1026.58 712.271 1026.57 712.299 1026.57 712.377 1026.57 712.427 1026.6 712.45 1026.67 712.462 1026.65 712.475 1026.64 712.487 1026.63 712.5 1026.62 712.513 1026.61 712.527 1026.6 712.54 1026.59 712.554 1026.58 712.569 1026.58 712.584 1026.58 712.6 1026.57 712.617 1026.57 712.729 1026.57 712.784 1026.64 712.784 1026.77ZM713.076 1026.57C713.116 1026.57 713.152 1026.58 713.184 1026.59 713.216 1026.6 713.244 1026.62 713.266 1026.64 713.289 1026.67 713.307 1026.7 713.319 1026.73 713.331 1026.76 713.337 1026.8 713.337 1026.85 713.337 1026.89 713.331 1026.93 713.319 1026.97 713.307 1027 713.289 1027.03 713.266 1027.05 713.244 1027.08 713.216 1027.09 713.184 1027.11 713.152 1027.12 713.116 1027.12 713.076 1027.12 713.036 1027.12 712.999 1027.12 712.967 1027.11 712.935 1027.09 712.907 1027.08 712.884 1027.05 712.862 1027.03 712.844 1027 712.831 1026.97 712.819 1026.93 712.813 1026.89 712.813 1026.85 712.813 1026.8 712.819 1026.76 712.831 1026.73 712.844 1026.7 712.862 1026.67 712.884 1026.64 712.907 1026.62 712.935 1026.6 712.967 1026.59 712.999 1026.58 713.036 1026.57 713.076 1026.57ZM713.076 1027.02C713.094 1027.02 713.111 1027.02 713.126 1027.01 713.141 1027 713.154 1026.99 713.165 1026.98 713.176 1026.97 713.184 1026.95 713.19 1026.93 713.195 1026.9 713.198 1026.88 713.198 1026.85 713.198 1026.82 713.195 1026.79 713.19 1026.77 713.184 1026.75 713.176 1026.73 713.165 1026.72 713.154 1026.7 713.141 1026.69 713.126 1026.68 713.111 1026.68 713.094 1026.67 713.076 1026.67 713.057 1026.67 713.04 1026.68 713.025 1026.68 713.009 1026.69 712.996 1026.7 712.986 1026.72 712.975 1026.73 712.967 1026.75 712.961 1026.77 712.955 1026.79 712.952 1026.82 712.952 1026.85 712.952 1026.88 712.955 1026.9 712.961 1026.93 712.967 1026.95 712.975 1026.97 712.986 1026.98 712.996 1026.99 713.009 1027 713.025 1027.01 713.04 1027.02 713.057 1027.02 713.076 1027.02ZM713.702 1026.72C713.67 1026.69 713.633 1026.67 713.591 1026.67 713.555 1026.67 713.528 1026.69 713.508 1026.72 713.489 1026.75 713.479 1026.79 713.479 1026.85 713.479 1026.91 713.488 1026.95 713.505 1026.98 713.523 1027.01 713.549 1027.02 713.584 1027.02 713.606 1027.02 713.627 1027.02 713.646 1027 713.666 1026.99 713.685 1026.97 713.702 1026.95ZM713.706 1027.05C713.685 1027.07 713.662 1027.09 713.636 1027.1 713.61 1027.12 713.582 1027.12 713.551 1027.12 713.517 1027.12 713.487 1027.12 713.46 1027.1 713.434 1027.09 713.412 1027.07 713.394 1027.05 713.376 1027.03 713.363 1027 713.353 1026.96 713.344 1026.93 713.34 1026.89 713.34 1026.85 713.34 1026.81 713.345 1026.77 713.355 1026.74 713.366 1026.7 713.38 1026.67 713.399 1026.65 713.418 1026.63 713.441 1026.61 713.469 1026.59 713.496 1026.58 713.527 1026.57 713.561 1026.57 713.591 1026.57 713.617 1026.58 713.64 1026.59 713.663 1026.59 713.684 1026.61 713.704 1026.62 713.703 1026.61 713.703 1026.59 713.703 1026.57 713.702 1026.56 713.702 1026.54 713.702 1026.52L713.702 1026.38 713.838 1026.38 713.838 1027.11 713.706 1027.11ZM714.143 1027.12C714.1 1027.12 714.062 1027.12 714.028 1027.1 713.995 1027.09 713.966 1027.07 713.943 1027.05 713.921 1027.03 713.903 1027 713.891 1026.96 713.879 1026.93 713.873 1026.89 713.873 1026.85 713.873 1026.8 713.879 1026.77 713.891 1026.73 713.903 1026.7 713.92 1026.67 713.942 1026.65 713.965 1026.62 713.992 1026.6 714.025 1026.59 714.057 1026.58 714.094 1026.57 714.136 1026.57 714.175 1026.57 714.211 1026.58 714.243 1026.59 714.275 1026.6 714.303 1026.62 714.326 1026.64 714.348 1026.67 714.366 1026.69 714.378 1026.73 714.39 1026.76 714.396 1026.8 714.396 1026.84L714.396 1026.88 714.013 1026.88C714.014 1026.9 714.018 1026.93 714.025 1026.95 714.032 1026.97 714.041 1026.98 714.052 1027 714.064 1027.01 714.077 1027.02 714.093 1027.03 714.108 1027.03 714.125 1027.03 714.143 1027.03 714.172 1027.03 714.196 1027.03 714.215 1027.02 714.235 1027 714.249 1026.98 714.258 1026.95L714.385 1026.95C714.38 1026.98 714.371 1027 714.357 1027.03 714.344 1027.05 714.326 1027.06 714.305 1027.08 714.284 1027.09 714.26 1027.1 714.233 1027.11 714.205 1027.12 714.175 1027.12 714.143 1027.12ZM714.258 1026.79C714.253 1026.75 714.24 1026.71 714.218 1026.69 714.197 1026.67 714.169 1026.66 714.136 1026.66 714.102 1026.66 714.075 1026.67 714.054 1026.69 714.033 1026.71 714.019 1026.75 714.014 1026.79ZM714.566 1027.11 714.429 1027.11 714.429 1026.38 714.566 1026.38ZM715.007 1026.69 715.007 1027.11 714.871 1027.11 714.871 1026.69 714.795 1026.69 714.795 1026.58 714.871 1026.58 714.871 1026.55C714.871 1026.48 714.885 1026.44 714.913 1026.41 714.941 1026.38 714.983 1026.37 715.04 1026.37 715.058 1026.37 715.073 1026.37 715.087 1026.37 715.101 1026.37 715.114 1026.37 715.126 1026.38L715.126 1026.48C715.117 1026.48 715.107 1026.48 715.097 1026.48 715.087 1026.47 715.077 1026.47 715.066 1026.47 715.046 1026.47 715.031 1026.48 715.021 1026.49 715.012 1026.5 715.007 1026.52 715.007 1026.55L715.007 1026.58 715.102 1026.58 715.102 1026.69ZM715.339 1026.57C715.379 1026.57 715.415 1026.58 715.447 1026.59 715.479 1026.6 715.507 1026.62 715.529 1026.64 715.552 1026.67 715.57 1026.7 715.582 1026.73 715.594 1026.76 715.6 1026.8 715.6 1026.85 715.6 1026.89 715.594 1026.93 715.582 1026.97 715.57 1027 715.552 1027.03 715.529 1027.05 715.507 1027.08 715.479 1027.09 715.447 1027.11 715.415 1027.12 715.379 1027.12 715.339 1027.12 715.299 1027.12 715.263 1027.12 715.23 1027.11 715.198 1027.09 715.17 1027.08 715.147 1027.05 715.125 1027.03 715.107 1027 715.094 1026.97 715.082 1026.93 715.076 1026.89 715.076 1026.85 715.076 1026.8 715.082 1026.76 715.094 1026.73 715.107 1026.7 715.125 1026.67 715.147 1026.64 715.17 1026.62 715.198 1026.6 715.23 1026.59 715.263 1026.58 715.299 1026.57 715.339 1026.57ZM715.339 1027.02C715.357 1027.02 715.374 1027.02 715.389 1027.01 715.404 1027 715.417 1026.99 715.428 1026.98 715.439 1026.97 715.447 1026.95 715.453 1026.93 715.458 1026.9 715.461 1026.88 715.461 1026.85 715.461 1026.82 715.458 1026.79 715.453 1026.77 715.447 1026.75 715.439 1026.73 715.428 1026.72 715.417 1026.7 715.404 1026.69 715.389 1026.68 715.374 1026.68 715.357 1026.67 715.339 1026.67 715.32 1026.67 715.303 1026.68 715.288 1026.68 715.272 1026.69 715.259 1026.7 715.249 1026.72 715.238 1026.73 715.23 1026.75 715.224 1026.77 715.218 1026.79 715.215 1026.82 715.215 1026.85 715.215 1026.88 715.218 1026.9 715.224 1026.93 715.23 1026.95 715.238 1026.97 715.249 1026.98 715.259 1026.99 715.272 1027 715.288 1027.01 715.303 1027.02 715.32 1027.02 715.339 1027.02ZM715.954 1026.7C715.946 1026.7 715.937 1026.69 715.927 1026.69 715.916 1026.69 715.905 1026.69 715.892 1026.69 715.868 1026.69 715.846 1026.7 715.826 1026.71 715.805 1026.72 715.786 1026.74 715.769 1026.76L715.769 1027.11 715.632 1027.11 715.632 1026.58 715.765 1026.58 715.765 1026.67C715.786 1026.63 715.809 1026.61 715.834 1026.6 715.859 1026.58 715.885 1026.57 715.912 1026.57 715.919 1026.57 715.926 1026.57 715.933 1026.57 715.939 1026.57 715.947 1026.58 715.954 1026.58Z" fill="#FFFFFF" fill-rule="nonzero" fill-opacity="1"/><text fill="#7F7F7F" fill-opacity="1" font-family="Gautami,Gautami_MSFontService,sans-serif" font-style="normal" font-variant="normal" font-weight="700" font-stretch="normal" font-size="110" text-anchor="start" direction="ltr" writing-mode="lr-tb" unicode-bidi="normal" text-decoration="none" transform="matrix(1 0 0 1 711.946 1096)">model for </text><path d="M712.342 1158.87 712.29 1158.87C712.233 1158.87 712.191 1158.88 712.163 1158.89 712.135 1158.9 712.121 1158.93 712.121 1158.96 712.121 1158.99 712.129 1159 712.146 1159.02 712.163 1159.03 712.185 1159.03 712.213 1159.03 712.226 1159.03 712.239 1159.03 712.252 1159.03 712.264 1159.03 712.276 1159.02 712.287 1159.02 712.298 1159.01 712.308 1159.01 712.318 1159 712.327 1158.99 712.336 1158.98 712.342 1158.97ZM712.343 1159.06C712.32 1159.08 712.294 1159.1 712.264 1159.11 712.235 1159.12 712.202 1159.12 712.165 1159.12 712.139 1159.12 712.115 1159.12 712.093 1159.11 712.07 1159.11 712.051 1159.1 712.035 1159.08 712.019 1159.07 712.006 1159.05 711.996 1159.04 711.987 1159.02 711.982 1158.99 711.982 1158.97 711.982 1158.85 712.087 1158.79 712.297 1158.79L712.342 1158.79C712.342 1158.76 712.341 1158.74 712.34 1158.73 712.338 1158.72 712.335 1158.71 712.332 1158.7 712.329 1158.7 712.324 1158.69 712.318 1158.68 712.312 1158.67 712.302 1158.67 712.288 1158.66 712.274 1158.66 712.257 1158.66 712.237 1158.66 712.202 1158.66 712.175 1158.66 712.157 1158.68 712.139 1158.69 712.128 1158.71 712.126 1158.74L712.003 1158.74C712.011 1158.63 712.09 1158.57 712.242 1158.57 712.279 1158.57 712.311 1158.58 712.339 1158.58 712.367 1158.59 712.393 1158.6 712.415 1158.61 712.437 1158.63 712.452 1158.65 712.463 1158.67 712.473 1158.69 712.478 1158.73 712.478 1158.77L712.478 1159.11 712.343 1159.11ZM712.671 1158.65C712.719 1158.6 712.773 1158.57 712.834 1158.57 712.954 1158.57 713.014 1158.64 713.014 1158.77L713.014 1159.11 712.877 1159.11 712.877 1158.78C712.877 1158.75 712.874 1158.73 712.868 1158.71 712.861 1158.7 712.851 1158.69 712.836 1158.68 712.821 1158.68 712.803 1158.68 712.783 1158.68 712.747 1158.68 712.711 1158.71 712.675 1158.75L712.675 1159.11 712.539 1159.11 712.539 1158.58 712.671 1158.58ZM713.317 1159.11C713.306 1159.11 713.293 1159.12 713.281 1159.12 713.268 1159.12 713.254 1159.12 713.239 1159.12 713.213 1159.12 713.191 1159.12 713.173 1159.11 713.156 1159.11 713.141 1159.1 713.13 1159.09 713.119 1159.08 713.11 1159.07 713.105 1159.06 713.099 1159.04 713.095 1159.03 713.092 1159.01 713.089 1158.99 713.088 1158.97 713.088 1158.95 713.088 1158.93 713.087 1158.91 713.087 1158.89L713.087 1158.69 713.02 1158.69 713.02 1158.58 713.087 1158.58 713.087 1158.45 713.223 1158.45 713.223 1158.58 713.309 1158.58 713.309 1158.69 713.223 1158.69 713.223 1158.94C713.223 1158.96 713.224 1158.97 713.227 1158.98 713.229 1158.99 713.232 1159 713.236 1159 713.241 1159.01 713.246 1159.01 713.252 1159.02 713.258 1159.02 713.265 1159.02 713.273 1159.02 713.287 1159.02 713.302 1159.02 713.317 1159.02ZM713.46 1159.11 713.323 1159.11 713.323 1158.58 713.46 1158.58ZM713.46 1158.5 713.323 1158.5 713.323 1158.38 713.46 1158.38ZM714.297 1159.11 714.16 1159.11 714.16 1158.78C714.16 1158.74 714.155 1158.71 714.145 1158.7 714.134 1158.68 714.117 1158.68 714.092 1158.68 714.073 1158.68 714.054 1158.68 714.035 1158.69 714.016 1158.71 713.997 1158.72 713.979 1158.75L713.979 1159.11 713.842 1159.11 713.842 1158.78C713.842 1158.74 713.837 1158.71 713.827 1158.7 713.816 1158.68 713.799 1158.68 713.775 1158.68 713.755 1158.68 713.736 1158.68 713.717 1158.69 713.698 1158.71 713.679 1158.72 713.66 1158.75L713.66 1159.11 713.524 1159.11 713.524 1158.58 713.657 1158.58 713.657 1158.65C713.68 1158.63 713.705 1158.61 713.73 1158.59 713.756 1158.58 713.783 1158.57 713.811 1158.57 713.889 1158.57 713.94 1158.6 713.963 1158.67 713.975 1158.65 713.987 1158.64 714 1158.63 714.012 1158.62 714.025 1158.61 714.039 1158.6 714.053 1158.59 714.067 1158.58 714.082 1158.58 714.097 1158.58 714.112 1158.57 714.129 1158.57 714.241 1158.57 714.297 1158.64 714.297 1158.77ZM714.491 1159.11 714.355 1159.11 714.355 1158.58 714.491 1158.58ZM714.491 1158.5 714.355 1158.5 714.355 1158.38 714.491 1158.38ZM714.789 1159.12C714.748 1159.12 714.711 1159.12 714.678 1159.1 714.646 1159.09 714.619 1159.07 714.596 1159.05 714.573 1159.03 714.556 1159 714.544 1158.96 714.532 1158.93 714.526 1158.89 714.526 1158.85 714.526 1158.8 714.532 1158.77 714.544 1158.73 714.556 1158.7 714.573 1158.67 714.596 1158.64 714.619 1158.62 714.646 1158.6 714.678 1158.59 714.711 1158.58 714.748 1158.57 714.789 1158.57 714.82 1158.57 714.849 1158.58 714.875 1158.58 714.901 1158.59 714.924 1158.6 714.944 1158.62 714.964 1158.64 714.98 1158.65 714.992 1158.68 715.004 1158.7 715.012 1158.73 715.015 1158.76L714.888 1158.76C714.885 1158.73 714.874 1158.71 714.857 1158.7 714.839 1158.68 714.816 1158.67 714.789 1158.67 714.77 1158.67 714.753 1158.68 714.738 1158.68 714.723 1158.69 714.71 1158.7 714.699 1158.72 714.688 1158.73 714.68 1158.75 714.674 1158.77 714.668 1158.79 714.665 1158.82 714.665 1158.85 714.665 1158.88 714.668 1158.9 714.674 1158.93 714.68 1158.95 714.688 1158.97 714.699 1158.98 714.71 1158.99 714.723 1159 714.738 1159.01 714.753 1159.02 714.77 1159.02 714.789 1159.02 714.802 1159.02 714.815 1159.02 714.826 1159.02 714.838 1159.01 714.848 1159.01 714.857 1159 714.866 1158.99 714.873 1158.98 714.878 1158.97 714.883 1158.96 714.887 1158.95 714.888 1158.94L715.015 1158.94C715.011 1158.97 715.003 1158.99 714.991 1159.02 714.979 1159.04 714.963 1159.06 714.943 1159.07 714.924 1159.09 714.901 1159.1 714.875 1159.11 714.849 1159.12 714.82 1159.12 714.789 1159.12ZM715.352 1158.7C715.345 1158.7 715.335 1158.69 715.325 1158.69 715.315 1158.69 715.303 1158.69 715.29 1158.69 715.267 1158.69 715.245 1158.7 715.224 1158.71 715.203 1158.72 715.184 1158.74 715.167 1158.76L715.167 1159.11 715.031 1159.11 715.031 1158.58 715.163 1158.58 715.163 1158.67C715.184 1158.63 715.207 1158.61 715.232 1158.6 715.257 1158.58 715.283 1158.57 715.311 1158.57 715.317 1158.57 715.324 1158.57 715.331 1158.57 715.338 1158.57 715.345 1158.58 715.352 1158.58ZM715.585 1158.57C715.625 1158.57 715.661 1158.58 715.693 1158.59 715.725 1158.6 715.753 1158.62 715.776 1158.64 715.798 1158.67 715.816 1158.7 715.828 1158.73 715.841 1158.76 715.847 1158.8 715.847 1158.85 715.847 1158.89 715.841 1158.93 715.828 1158.97 715.816 1159 715.798 1159.03 715.776 1159.05 715.753 1159.08 715.725 1159.09 715.693 1159.11 715.661 1159.12 715.625 1159.12 715.585 1159.12 715.545 1159.12 715.509 1159.12 715.476 1159.11 715.444 1159.09 715.416 1159.08 715.394 1159.05 715.371 1159.03 715.353 1159 715.341 1158.97 715.328 1158.93 715.322 1158.89 715.322 1158.85 715.322 1158.8 715.328 1158.76 715.341 1158.73 715.353 1158.7 715.371 1158.67 715.394 1158.64 715.416 1158.62 715.444 1158.6 715.476 1158.59 715.509 1158.58 715.545 1158.57 715.585 1158.57ZM715.585 1159.02C715.603 1159.02 715.62 1159.02 715.635 1159.01 715.651 1159 715.664 1158.99 715.674 1158.98 715.685 1158.97 715.693 1158.95 715.699 1158.93 715.705 1158.9 715.708 1158.88 715.708 1158.85 715.708 1158.82 715.705 1158.79 715.699 1158.77 715.693 1158.75 715.685 1158.73 715.674 1158.72 715.664 1158.7 715.651 1158.69 715.635 1158.68 715.62 1158.68 715.603 1158.67 715.585 1158.67 715.566 1158.67 715.549 1158.68 715.534 1158.68 715.519 1158.69 715.506 1158.7 715.495 1158.72 715.484 1158.73 715.476 1158.75 715.47 1158.77 715.464 1158.79 715.461 1158.82 715.461 1158.85 715.461 1158.88 715.464 1158.9 715.47 1158.93 715.476 1158.95 715.484 1158.97 715.495 1158.98 715.506 1158.99 715.519 1159 715.534 1159.01 715.549 1159.02 715.566 1159.02 715.585 1159.02ZM716.015 1158.54C716.015 1158.56 716.015 1158.58 716.014 1158.6 716.014 1158.61 716.013 1158.63 716.013 1158.65 716.034 1158.62 716.057 1158.61 716.084 1158.59 716.11 1158.58 716.138 1158.57 716.168 1158.57 716.202 1158.57 716.232 1158.58 716.259 1158.59 716.285 1158.6 716.307 1158.62 716.324 1158.65 716.342 1158.67 716.355 1158.7 716.364 1158.73 716.374 1158.76 716.378 1158.8 716.378 1158.84 716.378 1158.89 716.373 1158.92 716.363 1158.96 716.353 1158.99 716.339 1159.02 716.32 1159.05 716.301 1159.07 716.277 1159.09 716.25 1159.1 716.222 1159.12 716.191 1159.12 716.157 1159.12 716.127 1159.12 716.1 1159.12 716.077 1159.11 716.053 1159.1 716.031 1159.09 716.011 1159.07L716.011 1159.11 715.879 1159.11 715.879 1158.38 716.015 1158.38ZM716.015 1158.98C716.047 1159.01 716.084 1159.02 716.127 1159.02 716.162 1159.02 716.19 1159.01 716.21 1158.98 716.229 1158.95 716.239 1158.9 716.239 1158.84 716.239 1158.79 716.23 1158.74 716.212 1158.72 716.193 1158.69 716.167 1158.67 716.133 1158.67 716.111 1158.67 716.091 1158.68 716.071 1158.69 716.051 1158.71 716.033 1158.72 716.015 1158.75ZM716.548 1159.11 716.411 1159.11 716.411 1158.58 716.548 1158.58ZM716.548 1158.5 716.411 1158.5 716.411 1158.38 716.548 1158.38ZM716.943 1158.87 716.89 1158.87C716.834 1158.87 716.791 1158.88 716.763 1158.89 716.736 1158.9 716.722 1158.93 716.722 1158.96 716.722 1158.99 716.73 1159 716.747 1159.02 716.764 1159.03 716.786 1159.03 716.814 1159.03 716.827 1159.03 716.84 1159.03 716.852 1159.03 716.865 1159.03 716.876 1159.02 716.888 1159.02 716.899 1159.01 716.909 1159.01 716.918 1159 716.928 1158.99 716.936 1158.98 716.943 1158.97ZM716.944 1159.06C716.921 1159.08 716.894 1159.1 716.865 1159.11 716.836 1159.12 716.802 1159.12 716.765 1159.12 716.739 1159.12 716.715 1159.12 716.693 1159.11 716.671 1159.11 716.652 1159.1 716.635 1159.08 716.619 1159.07 716.606 1159.05 716.597 1159.04 716.587 1159.02 716.582 1158.99 716.582 1158.97 716.582 1158.85 716.687 1158.79 716.897 1158.79L716.943 1158.79C716.943 1158.76 716.942 1158.74 716.94 1158.73 716.938 1158.72 716.936 1158.71 716.933 1158.7 716.929 1158.7 716.925 1158.69 716.919 1158.68 716.912 1158.67 716.902 1158.67 716.888 1158.66 716.874 1158.66 716.857 1158.66 716.838 1158.66 716.802 1158.66 716.775 1158.66 716.757 1158.68 716.739 1158.69 716.729 1158.71 716.726 1158.74L716.604 1158.74C716.611 1158.63 716.691 1158.57 716.842 1158.57 716.879 1158.57 716.912 1158.58 716.94 1158.58 716.968 1158.59 716.993 1158.6 717.016 1158.61 717.037 1158.63 717.053 1158.65 717.063 1158.67 717.074 1158.69 717.079 1158.73 717.079 1158.77L717.079 1159.11 716.944 1159.11ZM717.276 1159.11 717.139 1159.11 717.139 1158.38 717.276 1158.38Z" fill="#FFFFFF" fill-rule="nonzero" fill-opacity="1"/><text fill="#7F7F7F" fill-opacity="1" font-family="Gautami,Gautami_MSFontService,sans-serif" font-style="normal" font-variant="normal" font-weight="700" font-stretch="normal" font-size="110" text-anchor="start" direction="ltr" writing-mode="lr-tb" unicode-bidi="normal" text-decoration="none" transform="matrix(1 0 0 1 711.946 1228)">antimicrobial </text><path d="M712.333 1290.7C712.325 1290.7 712.316 1290.69 712.306 1290.69 712.295 1290.69 712.284 1290.69 712.271 1290.69 712.248 1290.69 712.226 1290.7 712.205 1290.71 712.184 1290.72 712.165 1290.74 712.148 1290.76L712.148 1291.11 712.011 1291.11 712.011 1290.58 712.144 1290.58 712.144 1290.67C712.165 1290.63 712.188 1290.61 712.213 1290.6 712.238 1290.58 712.264 1290.57 712.291 1290.57 712.298 1290.57 712.305 1290.57 712.312 1290.57 712.318 1290.57 712.326 1290.58 712.333 1290.58ZM712.573 1291.12C712.53 1291.12 712.492 1291.12 712.458 1291.1 712.425 1291.09 712.397 1291.07 712.374 1291.05 712.351 1291.03 712.333 1291 712.321 1290.96 712.309 1290.93 712.303 1290.89 712.303 1290.85 712.303 1290.8 712.309 1290.77 712.321 1290.73 712.333 1290.7 712.35 1290.67 712.373 1290.65 712.395 1290.62 712.423 1290.6 712.455 1290.59 712.487 1290.58 712.524 1290.57 712.566 1290.57 712.606 1290.57 712.642 1290.58 712.674 1290.59 712.706 1290.6 712.733 1290.62 712.756 1290.64 712.779 1290.67 712.796 1290.69 712.808 1290.73 712.82 1290.76 712.826 1290.8 712.826 1290.84L712.826 1290.88 712.443 1290.88C712.444 1290.9 712.448 1290.93 712.455 1290.95 712.462 1290.97 712.471 1290.98 712.483 1291 712.494 1291.01 712.508 1291.02 712.523 1291.03 712.538 1291.03 712.555 1291.03 712.573 1291.03 712.602 1291.03 712.626 1291.03 712.645 1291.02 712.665 1291 712.679 1290.98 712.688 1290.95L712.816 1290.95C712.811 1290.98 712.801 1291 712.787 1291.03 712.774 1291.05 712.756 1291.06 712.735 1291.08 712.714 1291.09 712.69 1291.1 712.663 1291.11 712.635 1291.12 712.606 1291.12 712.573 1291.12ZM712.688 1290.79C712.683 1290.75 712.67 1290.71 712.648 1290.69 712.627 1290.67 712.6 1290.66 712.566 1290.66 712.533 1290.66 712.505 1290.67 712.484 1290.69 712.463 1290.71 712.449 1290.75 712.444 1290.79ZM713.061 1291.12C712.982 1291.12 712.924 1291.11 712.886 1291.08 712.848 1291.05 712.827 1291.01 712.823 1290.95L712.951 1290.95C712.951 1290.98 712.96 1291 712.978 1291.02 712.995 1291.03 713.022 1291.04 713.06 1291.04 713.092 1291.04 713.116 1291.03 713.133 1291.02 713.15 1291.01 713.159 1290.99 713.159 1290.97 713.159 1290.96 713.156 1290.95 713.152 1290.94 713.147 1290.94 713.14 1290.93 713.13 1290.93 713.12 1290.92 713.106 1290.91 713.09 1290.91 713.073 1290.91 713.052 1290.9 713.028 1290.89 713.011 1290.89 712.995 1290.89 712.979 1290.88 712.964 1290.88 712.949 1290.87 712.935 1290.87 712.92 1290.86 712.907 1290.85 712.895 1290.85 712.884 1290.84 712.873 1290.83 712.865 1290.82 712.856 1290.81 712.849 1290.8 712.844 1290.78 712.839 1290.77 712.837 1290.75 712.837 1290.73 712.837 1290.71 712.842 1290.69 712.851 1290.67 712.861 1290.65 712.875 1290.63 712.893 1290.62 712.911 1290.6 712.933 1290.59 712.96 1290.58 712.986 1290.58 713.016 1290.57 713.05 1290.57 713.123 1290.57 713.178 1290.59 713.215 1290.61 713.252 1290.64 713.271 1290.68 713.273 1290.72L713.148 1290.72C713.146 1290.68 713.115 1290.66 713.054 1290.66 713.029 1290.66 713.007 1290.66 712.991 1290.67 712.974 1290.68 712.966 1290.7 712.966 1290.72 712.966 1290.73 712.967 1290.73 712.97 1290.74 712.973 1290.75 712.979 1290.75 712.987 1290.76 712.996 1290.76 713.009 1290.77 713.025 1290.77 713.041 1290.78 713.063 1290.78 713.09 1290.79 713.123 1290.8 713.152 1290.8 713.177 1290.81 713.201 1290.82 713.222 1290.83 713.239 1290.84 713.255 1290.86 713.267 1290.87 713.275 1290.89 713.283 1290.91 713.287 1290.93 713.287 1290.95 713.287 1290.98 713.283 1291 713.274 1291.02 713.265 1291.04 713.251 1291.06 713.232 1291.08 713.213 1291.09 713.189 1291.1 713.161 1291.11 713.132 1291.12 713.099 1291.12 713.061 1291.12ZM713.454 1291.11 713.318 1291.11 713.318 1290.58 713.454 1290.58ZM713.454 1290.5 713.318 1290.5 713.318 1290.38 713.454 1290.38ZM713.72 1291.12C713.641 1291.12 713.583 1291.11 713.545 1291.08 713.507 1291.05 713.486 1291.01 713.482 1290.95L713.61 1290.95C713.61 1290.98 713.619 1291 713.637 1291.02 713.654 1291.03 713.681 1291.04 713.719 1291.04 713.75 1291.04 713.775 1291.03 713.792 1291.02 713.809 1291.01 713.817 1290.99 713.817 1290.97 713.817 1290.96 713.815 1290.95 713.811 1290.94 713.806 1290.94 713.799 1290.93 713.789 1290.93 713.778 1290.92 713.765 1290.91 713.748 1290.91 713.732 1290.91 713.711 1290.9 713.687 1290.89 713.67 1290.89 713.654 1290.89 713.638 1290.88 713.623 1290.88 713.608 1290.87 713.593 1290.87 713.579 1290.86 713.566 1290.85 713.554 1290.85 713.542 1290.84 713.532 1290.83 713.523 1290.82 713.515 1290.81 713.508 1290.8 713.503 1290.78 713.498 1290.77 713.496 1290.75 713.496 1290.73 713.496 1290.71 713.5 1290.69 713.51 1290.67 713.52 1290.65 713.534 1290.63 713.552 1290.62 713.57 1290.6 713.592 1290.59 713.619 1290.58 713.645 1290.58 713.675 1290.57 713.709 1290.57 713.782 1290.57 713.837 1290.59 713.874 1290.61 713.911 1290.64 713.93 1290.68 713.932 1290.72L713.807 1290.72C713.805 1290.68 713.773 1290.66 713.713 1290.66 713.687 1290.66 713.666 1290.66 713.65 1290.67 713.633 1290.68 713.625 1290.7 713.625 1290.72 713.625 1290.73 713.626 1290.73 713.629 1290.74 713.632 1290.75 713.638 1290.75 713.646 1290.76 713.655 1290.76 713.668 1290.77 713.684 1290.77 713.7 1290.78 713.722 1290.78 713.749 1290.79 713.782 1290.8 713.81 1290.8 713.835 1290.81 713.86 1290.82 713.881 1290.83 713.897 1290.84 713.914 1290.86 713.926 1290.87 713.934 1290.89 713.942 1290.91 713.946 1290.93 713.946 1290.95 713.946 1290.98 713.942 1291 713.933 1291.02 713.923 1291.04 713.909 1291.06 713.89 1291.08 713.871 1291.09 713.848 1291.1 713.82 1291.11 713.791 1291.12 713.758 1291.12 713.72 1291.12ZM714.223 1291.11C714.211 1291.11 714.198 1291.12 714.186 1291.12 714.173 1291.12 714.159 1291.12 714.144 1291.12 714.118 1291.12 714.096 1291.12 714.079 1291.11 714.061 1291.11 714.047 1291.1 714.035 1291.09 714.024 1291.08 714.016 1291.07 714.01 1291.06 714.004 1291.04 714 1291.03 713.997 1291.01 713.995 1290.99 713.993 1290.97 713.993 1290.95 713.993 1290.93 713.993 1290.91 713.993 1290.89L713.993 1290.69 713.925 1290.69 713.925 1290.58 713.993 1290.58 713.993 1290.45 714.129 1290.45 714.129 1290.58 714.214 1290.58 714.214 1290.69 714.129 1290.69 714.129 1290.94C714.129 1290.95 714.13 1290.97 714.132 1290.98 714.134 1290.99 714.137 1291 714.141 1291 714.146 1291.01 714.151 1291.01 714.157 1291.02 714.163 1291.02 714.17 1291.02 714.178 1291.02 714.192 1291.02 714.207 1291.02 714.223 1291.02ZM714.56 1290.87 714.507 1290.87C714.45 1290.87 714.408 1290.88 714.38 1290.89 714.352 1290.9 714.338 1290.93 714.338 1290.96 714.338 1290.99 714.347 1291 714.363 1291.02 714.38 1291.03 714.403 1291.03 714.431 1291.03 714.443 1291.03 714.456 1291.03 714.469 1291.03 714.481 1291.03 714.493 1291.02 714.504 1291.02 714.515 1291.01 714.526 1291.01 714.535 1291 714.545 1290.99 714.553 1290.98 714.56 1290.97ZM714.561 1291.06C714.537 1291.08 714.511 1291.1 714.482 1291.11 714.452 1291.12 714.419 1291.12 714.382 1291.12 714.356 1291.12 714.332 1291.12 714.31 1291.11 714.288 1291.11 714.268 1291.1 714.252 1291.08 714.236 1291.07 714.223 1291.05 714.213 1291.04 714.204 1291.02 714.199 1290.99 714.199 1290.97 714.199 1290.85 714.304 1290.79 714.514 1290.79L714.56 1290.79C714.56 1290.76 714.559 1290.74 714.557 1290.73 714.555 1290.72 714.553 1290.71 714.549 1290.7 714.546 1290.7 714.541 1290.69 714.535 1290.68 714.529 1290.67 714.519 1290.67 714.505 1290.66 714.491 1290.66 714.474 1290.66 714.454 1290.66 714.419 1290.66 714.392 1290.66 714.374 1290.68 714.356 1290.69 714.346 1290.71 714.343 1290.74L714.221 1290.74C714.228 1290.63 714.307 1290.57 714.459 1290.57 714.496 1290.57 714.528 1290.58 714.557 1290.58 714.585 1290.59 714.61 1290.6 714.633 1290.61 714.654 1290.63 714.669 1290.64 714.68 1290.67 714.69 1290.69 714.695 1290.73 714.695 1290.77L714.695 1291.11 714.561 1291.11ZM714.888 1290.65C714.936 1290.6 714.991 1290.57 715.051 1290.57 715.171 1290.57 715.231 1290.64 715.231 1290.77L715.231 1291.11 715.095 1291.11 715.095 1290.78C715.095 1290.75 715.091 1290.73 715.085 1290.71 715.079 1290.7 715.068 1290.69 715.053 1290.68 715.038 1290.68 715.02 1290.68 715.001 1290.68 714.964 1290.68 714.928 1290.71 714.892 1290.75L714.892 1291.11 714.756 1291.11 714.756 1290.58 714.888 1290.58ZM715.522 1291.12C715.481 1291.12 715.444 1291.12 715.412 1291.1 715.379 1291.09 715.352 1291.07 715.329 1291.05 715.307 1291.03 715.289 1291 715.277 1290.96 715.265 1290.93 715.259 1290.89 715.259 1290.85 715.259 1290.8 715.265 1290.77 715.277 1290.73 715.289 1290.7 715.307 1290.67 715.329 1290.64 715.352 1290.62 715.379 1290.6 715.412 1290.59 715.444 1290.58 715.481 1290.57 715.522 1290.57 715.553 1290.57 715.582 1290.58 715.608 1290.58 715.635 1290.59 715.658 1290.6 715.677 1290.62 715.697 1290.64 715.713 1290.65 715.725 1290.68 715.737 1290.7 715.745 1290.73 715.748 1290.76L715.622 1290.76C715.618 1290.73 715.607 1290.71 715.59 1290.7 715.572 1290.68 715.55 1290.67 715.522 1290.67 715.504 1290.67 715.487 1290.68 715.471 1290.68 715.456 1290.69 715.443 1290.7 715.432 1290.72 715.421 1290.73 715.413 1290.75 715.407 1290.77 715.401 1290.79 715.398 1290.82 715.398 1290.85 715.398 1290.88 715.401 1290.9 715.407 1290.93 715.413 1290.95 715.421 1290.97 715.432 1290.98 715.443 1290.99 715.456 1291 715.471 1291.01 715.487 1291.02 715.504 1291.02 715.522 1291.02 715.535 1291.02 715.548 1291.02 715.56 1291.02 715.571 1291.01 715.581 1291.01 715.59 1291 715.599 1290.99 715.606 1290.98 715.611 1290.97 715.617 1290.96 715.62 1290.95 715.622 1290.94L715.748 1290.94C715.744 1290.97 715.736 1290.99 715.724 1291.02 715.712 1291.04 715.696 1291.06 715.677 1291.07 715.657 1291.09 715.634 1291.1 715.608 1291.11 715.582 1291.12 715.553 1291.12 715.522 1291.12ZM716.005 1291.12C715.962 1291.12 715.924 1291.12 715.89 1291.1 715.857 1291.09 715.828 1291.07 715.805 1291.05 715.783 1291.03 715.765 1291 715.753 1290.96 715.741 1290.93 715.734 1290.89 715.734 1290.85 715.734 1290.8 715.741 1290.77 715.753 1290.73 715.765 1290.7 715.782 1290.67 715.804 1290.65 715.827 1290.62 715.854 1290.6 715.887 1290.59 715.919 1290.58 715.956 1290.57 715.998 1290.57 716.037 1290.57 716.073 1290.58 716.105 1290.59 716.137 1290.6 716.165 1290.62 716.188 1290.64 716.21 1290.67 716.228 1290.69 716.24 1290.73 716.252 1290.76 716.258 1290.8 716.258 1290.84L716.258 1290.88 715.875 1290.88C715.876 1290.9 715.88 1290.93 715.887 1290.95 715.894 1290.97 715.903 1290.98 715.914 1291 715.926 1291.01 715.939 1291.02 715.955 1291.03 715.97 1291.03 715.987 1291.03 716.005 1291.03 716.034 1291.03 716.057 1291.03 716.077 1291.02 716.097 1291 716.111 1290.98 716.12 1290.95L716.247 1290.95C716.242 1290.98 716.233 1291 716.219 1291.03 716.206 1291.05 716.188 1291.06 716.167 1291.08 716.146 1291.09 716.122 1291.1 716.095 1291.11 716.067 1291.12 716.037 1291.12 716.005 1291.12ZM716.12 1290.79C716.115 1290.75 716.101 1290.71 716.08 1290.69 716.059 1290.67 716.031 1290.66 715.998 1290.66 715.964 1290.66 715.937 1290.67 715.916 1290.69 715.894 1290.71 715.881 1290.75 715.876 1290.79Z" fill="#FFFFFF" fill-rule="nonzero" fill-opacity="1"/><text fill="#7F7F7F" fill-opacity="1" font-family="Gautami,Gautami_MSFontService,sans-serif" font-style="normal" font-variant="normal" font-weight="700" font-stretch="normal" font-size="110" text-anchor="start" direction="ltr" writing-mode="lr-tb" unicode-bidi="normal" text-decoration="none" transform="matrix(1 0 0 1 711.946 1360)">resistance</text></g></g></svg>